<?xml version="1.0" encoding="UTF-8"?>
<svg width="117px" height="100px" viewBox="0 0 117 100" version="1.1" xmlns="http://www.w3.org/2000/svg" xmlns:xlink="http://www.w3.org/1999/xlink">
    <!-- Generator: Sketch 3.8.1 (29687) - http://www.bohemiancoding.com/sketch -->
    <title>Group 2</title>
    <desc>Created with Sketch.</desc>
    <defs></defs>
    <g id="Page-2" stroke="none" stroke-width="1" fill="none" fill-rule="evenodd">
        <g id="Mobile-Portrait" transform="translate(-261.000000, -339.000000)">
            <g id="Group-2" transform="translate(261.000000, 339.000000)">
                <g id="Fill-403" fill="#FFFFFF">
                    <path d="M77.6821705,49.833887 C75.4673311,49.833887 73.4629014,51.1572536 72.593577,53.1893688 L57.4219269,88.593577 L49.9966777,88.593577 L49.9966777,66.4451827 C49.9966777,63.3942414 47.5160576,60.9080842 44.4595792,60.9080842 L12.3333333,60.9080842 L21.3975637,11.0741971 L60.0077519,11.0741971 L83.2192691,20.3654485 L83.2192691,49.833887 L77.6821705,49.833887 Z M110.904762,0 L88.7563677,0 C85.6998893,0 83.2192691,2.48615725 83.2192691,5.53709856 L83.2192691,8.43300111 L63.1306755,0.398671096 C62.4717608,0.138427464 61.7740864,0 61.0708749,0 L16.7740864,0 C14.0996678,0 11.8017719,1.9158361 11.3255814,4.55149502 L0.251384275,65.4595792 C-0.0420819491,67.0708749 0.395348837,68.7375415 1.44739756,70 C2.49944629,71.2569214 4.06090808,71.9822813 5.69988926,71.9822813 L38.9224806,71.9822813 L38.9224806,94.1306755 C38.9224806,97.192691 41.4031008,99.6677741 44.4595792,99.6677741 L61.0708749,99.6677741 C63.2857143,99.6677741 65.290144,98.3499446 66.1594684,96.3122924 L81.3311185,60.9080842 L83.2192691,60.9080842 C83.2192691,63.9700997 85.6998893,66.4451827 88.7563677,66.4451827 L110.904762,66.4451827 C113.96124,66.4451827 116.44186,63.9700997 116.44186,60.9080842 L116.44186,5.53709856 C116.44186,2.48615725 113.96124,0 110.904762,0 L110.904762,0 Z"></path>
                </g>
                <polygon id="Path" fill="#8DBA0F" points="105.367663 55.3709856 94.2934662 55.3709856 94.2934662 11.0741971 105.367663 11.0741971"></polygon>
            </g>
        </g>
    </g>
</svg>