<?xml version="1.0" encoding="UTF-8"?>
<svg width="100px" height="100px" viewBox="0 0 100 100" version="1.1" xmlns="http://www.w3.org/2000/svg" xmlns:xlink="http://www.w3.org/1999/xlink">
    <!-- Generator: Sketch 3.8.1 (29687) - http://www.bohemiancoding.com/sketch -->
    <title>quote</title>
    <desc>Created with Sketch.</desc>
    <defs></defs>
    <g id="Page-2" stroke="none" stroke-width="1" fill="none" fill-rule="evenodd">
        <g id="quote">
            <g id="Layer_1">
                <path d="M100,12.5 L100,87.5 C100,94.403125 94.403125,100 87.5,100 L18.75,100 C11.846875,100 6.25,94.403125 6.25,87.5 L9.375,87.5 C14.5447266,87.5 18.75,83.2947266 18.75,78.125 C18.75,72.9552734 14.5447266,68.75 9.375,68.75 L6.25,68.75 L6.25,31.25 L9.375,31.25 C14.5447266,31.25 18.75,27.0447266 18.75,21.875 C18.75,16.7052734 14.5447266,12.5 9.375,12.5 L6.25,12.5 C6.25,5.596875 11.846875,0 18.75,0 L87.5,0 C94.403125,0 100,5.596875 100,12.5 L100,12.5 Z M93.75,12.5 C93.75,9.0515625 90.9484375,6.25 87.5,6.25 L31.25,6.25 L31.25,93.75 L87.5,93.75 C90.9484375,93.75 93.75,90.9423828 93.75,87.5 L93.75,12.5 L93.75,12.5 Z" id="Shape" fill="#FFFFFF"></path>
                <path d="M65.625,75 L40.625,75 C38.8976563,75 37.5,76.3976562 37.5,78.125 C37.5,79.8523438 38.8976563,81.25 40.625,81.25 L65.625,81.25 C67.3523438,81.25 68.75,79.8523438 68.75,78.125 C68.75,76.3976562 67.3523438,75 65.625,75 L65.625,75 Z" id="Path" fill="#8DBA0F"></path>
                <path d="M3.125,25 L9.375,25 C11.1023438,25 12.5,23.6023437 12.5,21.875 C12.5,20.1476563 11.1023438,18.75 9.375,18.75 L3.125,18.75 C1.39765625,18.75 0,20.1476563 0,21.875 C0,23.6023437 1.39765625,25 3.125,25 L3.125,25 Z" id="Path" fill="#8DBA0F"></path>
                <path d="M84.375,62.5 L40.625,62.5 C38.8976563,62.5 37.5,63.8976563 37.5,65.625 C37.5,67.3523438 38.8976563,68.75 40.625,68.75 L84.375,68.75 C86.1023437,68.75 87.5,67.3523438 87.5,65.625 C87.5,63.8976563 86.1023437,62.5 84.375,62.5 L84.375,62.5 Z" id="Path" fill="#8DBA0F"></path>
                <path d="M84.375,50 L40.625,50 C38.8976563,50 37.5,51.3976563 37.5,53.125 C37.5,54.8523438 38.8976563,56.25 40.625,56.25 L84.375,56.25 C86.1023437,56.25 87.5,54.8523438 87.5,53.125 C87.5,51.3976563 86.1023437,50 84.375,50 L84.375,50 Z" id="Path" fill="#8DBA0F"></path>
                <path d="M84.375,37.5 L40.625,37.5 C38.8976563,37.5 37.5,38.8976563 37.5,40.625 C37.5,42.3523438 38.8976563,43.75 40.625,43.75 L84.375,43.75 C86.1023437,43.75 87.5,42.3523438 87.5,40.625 C87.5,38.8976563 86.1023437,37.5 84.375,37.5 L84.375,37.5 Z" id="Path" fill="#8DBA0F"></path>
                <path d="M84.375,25 L40.625,25 C38.8976563,25 37.5,26.3976563 37.5,28.125 C37.5,29.8523437 38.8976563,31.25 40.625,31.25 L84.375,31.25 C86.1023437,31.25 87.5,29.8523437 87.5,28.125 C87.5,26.3976563 86.1023437,25 84.375,25 L84.375,25 Z" id="Path" fill="#8DBA0F"></path>
                <path d="M84.375,12.5 L40.625,12.5 C38.8976563,12.5 37.5,13.8976563 37.5,15.625 C37.5,17.3523437 38.8976563,18.75 40.625,18.75 L84.375,18.75 C86.1023437,18.75 87.5,17.3523437 87.5,15.625 C87.5,13.8976563 86.1023437,12.5 84.375,12.5 L84.375,12.5 Z" id="Path" fill="#8DBA0F"></path>
                <path d="M9.375,81.25 L3.125,81.25 C1.39765625,81.25 0,79.8523438 0,78.125 C0,76.3976562 1.39765625,75 3.125,75 L9.375,75 C11.1023438,75 12.5,76.3976562 12.5,78.125 C12.5,79.8523438 11.1023438,81.25 9.375,81.25 L9.375,81.25 Z" id="Path" fill="#8DBA0F"></path>
            </g>
        </g>
    </g>
</svg>