<?xml version="1.0" encoding="UTF-8"?>
<svg width="117px" height="99px" viewBox="0 0 117 99" version="1.1" xmlns="http://www.w3.org/2000/svg" xmlns:xlink="http://www.w3.org/1999/xlink">
    <!-- Generator: Sketch 3.8.1 (29687) - http://www.bohemiancoding.com/sketch -->
    <title>Fill 387</title>
    <desc>Created with Sketch.</desc>
    <defs></defs>
    <g id="Page-2" stroke="none" stroke-width="1" fill="none" fill-rule="evenodd">
        <g id="Mobile-Portrait" transform="translate(-48.000000, -355.000000)">
            <g id="Fill-387" transform="translate(48.000000, 355.000000)">
                <path d="M46.5714286,78.7171927 L8,78.7171927 L8,8.00290698 L43.91,8.00290698 L53,17.092907 L53,82.4843355 L51.1164286,80.6007641 C49.9142857,79.3986213 48.275,78.7171927 46.5714286,78.7171927 L46.5714286,78.7171927 Z M110.465116,0.00290697674 L69.7674419,0.00290697674 C68.2267442,0.00290697674 66.744186,0.619186047 65.6569767,1.70639535 L58.1395349,9.22383721 L50.622093,1.70639535 C49.5348837,0.619186047 48.0523256,0.00290697674 46.5116279,0.00290697674 L5.81395349,0.00290697674 C2.60465116,0.00290697674 0,2.60755814 0,5.81686047 L0,81.3982558 C0,84.6075581 2.60465116,87.2122093 5.81395349,87.2122093 L44.1046512,87.2122093 L54.0290698,97.1366279 C55.1627907,98.2703488 56.6511628,98.8401163 58.1395349,98.8401163 C59.627907,98.8401163 61.1162791,98.2703488 62.25,97.1366279 L72.1744186,87.2122093 L110.465116,87.2122093 C113.674419,87.2122093 116.27907,84.6075581 116.27907,81.3982558 L116.27907,5.81686047 C116.27907,2.60755814 113.674419,0.00290697674 110.465116,0.00290697674 L110.465116,0.00290697674 Z M109,78.7171927 L70.4285714,78.7171927 C68.725,78.7171927 67.0857143,79.3986213 65.8835714,80.6007641 L64,82.4843355 L64,17.092907 L73.09,8.00290698 L109,8.00290698 L109,78.7171927 Z" fill="#FFFFFF"></path>
                <path d="M42.4418605,23.255814 L18.0232558,23.255814 C17.059157,23.255814 16.2790698,23.7758721 16.2790698,24.4186047 C16.2790698,25.0613372 17.059157,25.5813953 18.0232558,25.5813953 L42.4418605,25.5813953 C43.4059593,25.5813953 44.1860465,25.0613372 44.1860465,24.4186047 C44.1860465,23.7758721 43.4059593,23.255814 42.4418605,23.255814 L42.4418605,23.255814 Z" id="Path" fill="#8DBA0F"></path>
                <path d="M42.4418605,27.9069767 L18.0232558,27.9069767 C17.059157,27.9069767 16.2790698,28.4270349 16.2790698,29.0697674 C16.2790698,29.7125 17.059157,30.2325581 18.0232558,30.2325581 L42.4418605,30.2325581 C43.4059593,30.2325581 44.1860465,29.7125 44.1860465,29.0697674 C44.1860465,28.4270349 43.4059593,27.9069767 42.4418605,27.9069767 L42.4418605,27.9069767 Z" id="Path" fill="#8DBA0F"></path>
                <path d="M42.4418605,32.5581395 L18.0232558,32.5581395 C17.059157,32.5581395 16.2790698,33.0781977 16.2790698,33.7209302 C16.2790698,34.3636628 17.059157,34.8837209 18.0232558,34.8837209 L42.4418605,34.8837209 C43.4059593,34.8837209 44.1860465,34.3636628 44.1860465,33.7209302 C44.1860465,33.0781977 43.4059593,32.5581395 42.4418605,32.5581395 L42.4418605,32.5581395 Z" id="Path" fill="#8DBA0F"></path>
                <path d="M42.4418605,37.2093023 L18.0232558,37.2093023 C17.059157,37.2093023 16.2790698,37.7293605 16.2790698,38.372093 C16.2790698,39.0148256 17.059157,39.5348837 18.0232558,39.5348837 L42.4418605,39.5348837 C43.4059593,39.5348837 44.1860465,39.0148256 44.1860465,38.372093 C44.1860465,37.7293605 43.4059593,37.2093023 42.4418605,37.2093023 L42.4418605,37.2093023 Z" id="Path" fill="#8DBA0F"></path>
                <path d="M42.4418605,41.8604651 L18.0232558,41.8604651 C17.059157,41.8604651 16.2790698,42.3805233 16.2790698,43.0232558 C16.2790698,43.6659884 17.059157,44.1860465 18.0232558,44.1860465 L42.4418605,44.1860465 C43.4059593,44.1860465 44.1860465,43.6659884 44.1860465,43.0232558 C44.1860465,42.3805233 43.4059593,41.8604651 42.4418605,41.8604651 L42.4418605,41.8604651 Z" id="Path" fill="#8DBA0F"></path>
                <path d="M42.4418605,46.5116279 L18.0232558,46.5116279 C17.059157,46.5116279 16.2790698,47.031686 16.2790698,47.6744186 C16.2790698,48.3171512 17.059157,48.8372093 18.0232558,48.8372093 L42.4418605,48.8372093 C43.4059593,48.8372093 44.1860465,48.3171512 44.1860465,47.6744186 C44.1860465,47.031686 43.4059593,46.5116279 42.4418605,46.5116279 L42.4418605,46.5116279 Z" id="Path" fill="#8DBA0F"></path>
                <path d="M31.5406977,51.1627907 L17.2965116,51.1627907 C16.7341206,51.1627907 16.2790698,51.6828488 16.2790698,52.3255814 C16.2790698,52.968314 16.7341206,53.4883721 17.2965116,53.4883721 L31.5406977,53.4883721 C32.1030887,53.4883721 32.5581395,52.968314 32.5581395,52.3255814 C32.5581395,51.6828488 32.1030887,51.1627907 31.5406977,51.1627907 L31.5406977,51.1627907 Z" id="Path" fill="#8DBA0F"></path>
                <path d="M87.3546512,51.1627907 L73.1104651,51.1627907 C72.5480741,51.1627907 72.0930233,51.6828488 72.0930233,52.3255814 C72.0930233,52.968314 72.5480741,53.4883721 73.1104651,53.4883721 L87.3546512,53.4883721 C87.9170422,53.4883721 88.372093,52.968314 88.372093,52.3255814 C88.372093,51.6828488 87.9170422,51.1627907 87.3546512,51.1627907 L87.3546512,51.1627907 Z" id="Path" fill="#8DBA0F"></path>
                <path d="M42.4418605,23.255814 L18.0232558,23.255814 C17.059157,23.255814 16.2790698,23.7758721 16.2790698,24.4186047 C16.2790698,25.0613372 17.059157,25.5813953 18.0232558,25.5813953 L42.4418605,25.5813953 C43.4059593,25.5813953 44.1860465,25.0613372 44.1860465,24.4186047 C44.1860465,23.7758721 43.4059593,23.255814 42.4418605,23.255814 L42.4418605,23.255814 Z" id="Path" fill="#8DBA0F"></path>
                <path d="M42.4418605,27.9069767 L18.0232558,27.9069767 C17.059157,27.9069767 16.2790698,28.4270349 16.2790698,29.0697674 C16.2790698,29.7125 17.059157,30.2325581 18.0232558,30.2325581 L42.4418605,30.2325581 C43.4059593,30.2325581 44.1860465,29.7125 44.1860465,29.0697674 C44.1860465,28.4270349 43.4059593,27.9069767 42.4418605,27.9069767 L42.4418605,27.9069767 Z" id="Path" fill="#8DBA0F"></path>
                <path d="M98.255814,23.255814 L73.8372093,23.255814 C72.8731105,23.255814 72.0930233,23.7758721 72.0930233,24.4186047 C72.0930233,25.0613372 72.8731105,25.5813953 73.8372093,25.5813953 L98.255814,25.5813953 C99.2199128,25.5813953 100,25.0613372 100,24.4186047 C100,23.7758721 99.2199128,23.255814 98.255814,23.255814 L98.255814,23.255814 Z" id="Path" fill="#8DBA0F"></path>
                <path d="M98.255814,27.9069767 L73.8372093,27.9069767 C72.8731105,27.9069767 72.0930233,28.4270349 72.0930233,29.0697674 C72.0930233,29.7125 72.8731105,30.2325581 73.8372093,30.2325581 L98.255814,30.2325581 C99.2199128,30.2325581 100,29.7125 100,29.0697674 C100,28.4270349 99.2199128,27.9069767 98.255814,27.9069767 L98.255814,27.9069767 Z" id="Path" fill="#8DBA0F"></path>
                <path d="M98.255814,32.5581395 L73.8372093,32.5581395 C72.8731105,32.5581395 72.0930233,33.0781977 72.0930233,33.7209302 C72.0930233,34.3636628 72.8731105,34.8837209 73.8372093,34.8837209 L98.255814,34.8837209 C99.2199128,34.8837209 100,34.3636628 100,33.7209302 C100,33.0781977 99.2199128,32.5581395 98.255814,32.5581395 L98.255814,32.5581395 Z" id="Path" fill="#8DBA0F"></path>
                <path d="M98.255814,37.2093023 L73.8372093,37.2093023 C72.8731105,37.2093023 72.0930233,37.7293605 72.0930233,38.372093 C72.0930233,39.0148256 72.8731105,39.5348837 73.8372093,39.5348837 L98.255814,39.5348837 C99.2199128,39.5348837 100,39.0148256 100,38.372093 C100,37.7293605 99.2199128,37.2093023 98.255814,37.2093023 L98.255814,37.2093023 Z" id="Path" fill="#8DBA0F"></path>
                <path d="M98.255814,41.8604651 L73.8372093,41.8604651 C72.8731105,41.8604651 72.0930233,42.3805233 72.0930233,43.0232558 C72.0930233,43.6659884 72.8731105,44.1860465 73.8372093,44.1860465 L98.255814,44.1860465 C99.2199128,44.1860465 100,43.6659884 100,43.0232558 C100,42.3805233 99.2199128,41.8604651 98.255814,41.8604651 L98.255814,41.8604651 Z" id="Path" fill="#8DBA0F"></path>
                <path d="M98.255814,46.5116279 L73.8372093,46.5116279 C72.8731105,46.5116279 72.0930233,47.031686 72.0930233,47.6744186 C72.0930233,48.3171512 72.8731105,48.8372093 73.8372093,48.8372093 L98.255814,48.8372093 C99.2199128,48.8372093 100,48.3171512 100,47.6744186 C100,47.031686 99.2199128,46.5116279 98.255814,46.5116279 L98.255814,46.5116279 Z" id="Path" fill="#8DBA0F"></path>
                <path d="M98.255814,23.255814 L73.8372093,23.255814 C72.8731105,23.255814 72.0930233,23.7758721 72.0930233,24.4186047 C72.0930233,25.0613372 72.8731105,25.5813953 73.8372093,25.5813953 L98.255814,25.5813953 C99.2199128,25.5813953 100,25.0613372 100,24.4186047 C100,23.7758721 99.2199128,23.255814 98.255814,23.255814 L98.255814,23.255814 Z" id="Path" fill="#8DBA0F"></path>
                <path d="M98.255814,27.9069767 L73.8372093,27.9069767 C72.8731105,27.9069767 72.0930233,28.4270349 72.0930233,29.0697674 C72.0930233,29.7125 72.8731105,30.2325581 73.8372093,30.2325581 L98.255814,30.2325581 C99.2199128,30.2325581 100,29.7125 100,29.0697674 C100,28.4270349 99.2199128,27.9069767 98.255814,27.9069767 L98.255814,27.9069767 Z" id="Path" fill="#8DBA0F"></path>
            </g>
        </g>
    </g>
</svg>